<svg width="196" height="196" viewBox="0 0 196 196" fill="none" xmlns="http://www.w3.org/2000/svg">
<path d="M97.4735 0.183221C110.492 0.183221 123.524 0.289016 136.555 0.183221C162.542 -0.0812673 188.554 21.5407 194.444 50.2641C196.075 58.1987 195.708 66.2392 195.86 74.2135C196.163 92.1326 195.86 110.052 195.986 127.984C196.087 145.467 191.613 161.204 180.275 174.428C171.132 185.385 158.611 192.646 144.885 194.952C138.829 195.761 132.722 196.075 126.62 195.891C109.152 196.09 91.672 195.971 74.2041 195.891C67.0248 195.891 67.0754 195.891 68.6679 188.459C71.0947 177.086 73.4457 165.687 75.8725 154.301C76.6941 150.426 77.7053 149.791 81.573 149.619C92.5188 149.143 103.49 149.619 114.436 149.024C126.725 148.333 138.411 143.233 147.526 134.583C157.916 125.128 164.678 113.331 166.271 98.9696C168.672 77.3213 162.416 58.7938 146.212 44.5379C135.765 35.4082 122.48 30.6041 108.874 31.0358C93.9597 31.124 79.0535 31.124 64.1556 31.0358C62.7898 30.8634 61.4115 31.2279 60.2881 32.0588C59.1647 32.8896 58.3763 34.1274 58.076 35.5321C56.3949 40.8219 54.3979 46.1116 52.502 51.4014C51.238 55.0117 51.3391 55.2629 55.0299 55.2762C69.9446 55.2762 84.8466 55.2762 99.7486 55.2762C106.435 55.2762 113.172 54.8265 119.744 56.5986C127.613 58.8748 134.498 63.9074 139.247 70.8556C143.995 77.8037 146.322 86.2466 145.836 94.7734C145.351 103.3 142.084 111.395 136.58 117.704C131.077 124.013 123.67 128.156 115.599 129.439C105.575 130.88 95.5017 129.756 85.4533 129.941C84.925 130.018 84.3868 129.95 83.8907 129.745C83.3947 129.54 82.9577 129.205 82.622 128.771C82.2864 128.337 82.0635 127.82 81.9749 127.27C81.8863 126.72 81.9351 126.155 82.1165 125.63C83.1782 119.891 84.3157 114.178 85.567 108.438C85.7893 107.364 86.3741 106.409 87.2143 105.748C88.0546 105.087 89.0941 104.766 90.1426 104.841C95.2743 104.722 100.406 104.683 105.525 104.497C108.476 104.525 111.419 104.166 114.284 103.426C116.806 102.832 119.026 101.275 120.508 99.0588C121.99 96.8427 122.628 94.1275 122.298 91.4449C122.176 88.753 121.163 86.189 119.434 84.1917C117.705 82.1943 115.366 80.8876 112.818 80.4951C106.738 79.4239 100.608 80.0191 94.5032 79.7413C86.7299 79.3843 78.9313 79.5297 71.1453 79.2123C68.0613 79.0933 66.7594 80.2968 66.0895 83.3516C63.3341 96.9728 60.4143 110.554 57.5704 124.149C56.7488 128.024 54.9793 129.518 51.1621 129.306C48.2171 129.135 45.2847 129.399 42.3144 129.029C41.0733 128.877 39.8205 129.184 38.7726 129.896C37.7248 130.609 36.9478 131.682 36.5761 132.93C34.6423 137.73 32.7084 142.544 30.6355 147.292C29.8518 149.103 30.9009 149.183 32.0132 149.328C36.7321 149.69 41.466 149.787 46.1948 149.619C52.2618 149.804 52.3882 148.297 50.9094 155.769C48.6469 167.194 46.1822 178.567 43.8818 189.98C43.3888 192.427 42.365 192.876 40.1657 192.017C22.6852 185.14 10.7661 172.392 3.57417 154.592C1.18086 148.508 -0.0101153 141.981 0.0730286 135.403C0.0730286 110.369 -0.0912858 85.3353 0.0730286 60.3014C0.249983 42.184 7.87165 27.4255 20.7008 15.6426C32.112 4.92457 47.0927 -0.670561 62.4114 0.0642062C74.0524 0.460939 85.7061 0.156767 97.3598 0.156767" fill="#006A36"/>
</svg>
